<?xml version="1.0" standalone="no"?>
<!DOCTYPE svg PUBLIC "-//W3C//DTD SVG 20010904//EN"
 "http://www.w3.org/TR/2001/REC-SVG-20010904/DTD/svg10.dtd">
<svg version="1.0" xmlns="http://www.w3.org/2000/svg"
 width="396.000000pt" height="396.000000pt" viewBox="0 0 396.000000 396.000000"
 preserveAspectRatio="xMidYMid meet">
<metadata>
Created by potrace 1.11, written by Peter Selinger 2001-2013
</metadata>
<g transform="translate(0.000000,396.000000) scale(0.100000,-0.100000)"
fill="#000000" stroke="none">
<path d="M1911 3021 c-24 -10 -50 -26 -57 -36 -20 -27 -17 -85 5 -136 16 -36
20 -67 20 -169 -1 -183 2 -176 -83 -201 -80 -25 -77 -24 -128 -14 -33 6 -41 4
-69 -24 -28 -28 -30 -36 -26 -78 3 -34 11 -53 31 -69 25 -22 34 -23 107 -8 34
7 59 -17 51 -48 -3 -13 -20 -41 -39 -62 -18 -22 -33 -42 -33 -46 0 -3 -10 -6
-22 -7 -47 -4 -128 -130 -169 -263 -33 -106 -34 -304 -2 -400 57 -171 150
-263 316 -315 225 -69 489 16 591 190 33 55 63 137 74 201 9 55 8 197 -2 254
-26 137 -127 323 -181 332 -11 2 -37 25 -57 53 -56 73 -49 123 14 109 42 -9
88 -6 103 6 12 10 15 9 15 -8 0 -11 7 -25 15 -32 20 -16 17 -82 -5 -116 -20
-29 -16 -61 9 -68 9 -2 85 -3 169 -3 152 2 164 0 169 -33 11 -73 191 -66 210
8 6 25 38 47 53 37 38 -24 124 -2 134 33 5 23 0 93 -8 114 -9 21 -41 33 -78
29 -22 -2 -27 2 -30 25 -2 15 -10 31 -19 37 -25 16 -68 0 -82 -31 -14 -31 -27
-43 -41 -35 -15 10 -77 5 -92 -7 -9 -8 -19 -8 -35 0 -12 7 -37 12 -56 12 -26
0 -32 3 -24 11 16 16 14 52 -4 67 -17 14 -101 5 -122 -12 -9 -7 -15 -5 -19 7
-7 17 -12 17 -89 1 -11 -2 -28 -8 -39 -12 -16 -6 -17 -5 -7 15 18 32 5 92 -24
118 -19 17 -33 20 -62 16 -21 -3 -42 -5 -48 -6 -5 0 -42 10 -81 22 -85 26 -81
16 -82 208 -1 120 1 139 18 164 20 27 27 90 13 124 -8 21 -99 65 -133 64 -14
0 -45 -8 -69 -18z"/>
<path d="M966 2321 c-21 -24 -20 -47 3 -64 26 -17 31 -89 9 -114 -25 -29 -28
-50 -9 -67 13 -12 40 -15 139 -13 87 2 121 -1 118 -9 -2 -6 -1 -17 4 -24 6
-10 15 -8 41 11 19 12 37 27 40 32 4 5 15 4 27 -2 28 -15 74 -14 98 3 17 12
22 12 39 0 29 -21 70 -17 104 11 36 31 41 55 24 114 -14 49 -26 61 -60 61 -14
0 -21 5 -17 13 7 19 -33 57 -60 57 -28 0 -56 -29 -56 -58 0 -13 -6 -22 -16
-22 -10 0 -13 6 -9 19 7 22 -22 61 -50 65 -11 2 -31 -1 -45 -7 -14 -5 -39 -9
-57 -8 -34 2 -42 -5 -76 -59 -25 -41 -26 -49 -15 -72 8 -17 6 -20 -24 -22 -20
-2 -18 73 3 84 22 12 30 45 15 66 -19 25 -149 29 -170 5z"/>
<path d="M270 944 c0 -3 7 -12 15 -20 8 -8 12 -20 10 -27 -2 -7 -7 -30 -10
-52 -14 -98 -18 -111 -32 -127 -15 -17 -13 -18 28 -18 40 1 42 2 25 15 -16 12
-18 22 -12 72 9 79 11 91 20 100 4 4 6 4 5 -2 -2 -5 14 -45 34 -87 20 -43 37
-82 37 -88 0 -5 4 -10 10 -10 9 0 80 141 80 160 0 27 18 6 24 -27 11 -67 7
-105 -11 -119 -16 -12 -10 -13 40 -14 34 0 57 4 57 11 0 5 -4 8 -8 5 -13 -8
-30 33 -37 89 -3 28 -8 63 -11 79 -3 18 1 35 12 47 16 18 16 19 -19 19 -23 0
-37 -5 -38 -12 -2 -31 -9 -53 -40 -119 l-33 -69 -32 67 c-18 38 -36 83 -40
101 -6 28 -10 32 -40 32 -19 0 -34 -3 -34 -6z"/>
<path d="M954 939 c-10 -17 13 -36 27 -22 12 12 4 33 -11 33 -5 0 -12 -5 -16
-11z"/>
<path d="M1279 923 c10 -16 38 -72 62 -125 24 -54 48 -96 52 -95 8 2 87 180
87 196 0 6 10 19 22 31 l22 20 -47 0 c-50 0 -57 -6 -30 -25 15 -11 15 -18 5
-54 -7 -22 -21 -60 -31 -83 l-18 -43 -37 80 c-36 78 -42 113 -18 108 7 -2 12
2 12 7 0 6 -23 10 -50 10 l-51 0 20 -27z"/>
<path d="M1984 939 c-10 -17 13 -36 27 -22 12 12 4 33 -11 33 -5 0 -12 -5 -16
-11z"/>
<path d="M2358 933 c20 -14 22 -23 22 -108 0 -85 -2 -94 -22 -109 -22 -15 -18
-16 72 -14 128 1 174 29 184 114 6 49 -24 101 -70 120 -20 9 -68 14 -121 13
-83 0 -87 -1 -65 -16z m135 -2 c10 -1 30 -15 46 -31 50 -56 35 -156 -29 -178
-29 -11 -60 -9 -80 3 -11 7 -14 198 -4 208 4 4 16 5 28 2 12 -2 29 -4 39 -4z"/>
<path d="M2958 943 c-19 -5 -25 -23 -8 -23 6 0 10 -13 10 -28 0 -25 -4 -29
-27 -27 -54 3 -87 -25 -98 -83 -9 -54 59 -101 105 -72 8 5 19 5 25 0 13 -11
55 -2 55 11 0 5 -6 8 -12 6 -13 -2 -15 19 -17 176 -1 26 -4 46 -8 46 -5 -1
-16 -3 -25 -6z m-8 -114 c27 -50 8 -111 -33 -104 -28 6 -45 24 -51 56 -10 56
59 95 84 48z"/>
<path d="M3054 939 c-10 -17 13 -36 27 -22 12 12 4 33 -11 33 -5 0 -12 -5 -16
-11z"/>
<path d="M2688 924 c-11 -10 3 -34 19 -34 8 0 13 7 11 17 -3 18 -20 27 -30 17z"/>
<path d="M2753 924 c-16 -7 -5 -34 13 -34 8 0 14 9 14 20 0 20 -5 23 -27 14z"/>
<path d="M820 862 c-43 -14 -65 -63 -39 -89 8 -8 8 -17 -1 -32 -6 -12 -8 -26
-5 -31 3 -5 0 -19 -7 -30 -11 -18 -10 -23 6 -36 23 -17 75 -18 109 -3 67 31
46 87 -35 91 -52 2 -67 18 -18 18 35 0 70 31 70 61 0 16 5 20 27 17 26 -3 28
-6 29 -55 0 -38 -4 -53 -13 -53 -7 0 -13 -4 -13 -10 0 -5 18 -10 40 -10 22 0
40 5 40 10 0 6 -4 10 -10 10 -6 0 -10 29 -10 68 l0 68 -57 -2 c-32 -1 -67 2
-78 6 -11 4 -27 5 -35 2z m27 -20 c6 -4 14 -19 18 -34 5 -20 2 -29 -13 -37
-37 -20 -70 37 -40 67 14 14 19 14 35 4z m52 -157 c12 -13 -35 -36 -69 -33
-28 2 -36 8 -38 27 -4 23 -2 23 48 18 29 -3 55 -9 59 -12z"/>
<path d="M3367 858 c-33 -12 -45 -50 -26 -85 11 -21 11 -27 2 -30 -16 -6 -17
-33 -1 -33 6 0 4 -7 -5 -18 -22 -24 -21 -39 2 -52 46 -24 121 -5 139 35 15 33
-11 53 -71 56 -51 3 -66 19 -17 19 34 0 70 31 70 60 0 12 7 20 16 20 32 0 6
24 -28 25 -19 1 -39 5 -44 7 -5 3 -21 1 -37 -4z m40 -16 c6 -4 14 -19 18 -34
5 -20 2 -29 -13 -37 -37 -20 -70 37 -40 67 14 14 19 14 35 4z m52 -157 c11
-12 -32 -35 -65 -35 -36 0 -49 12 -40 37 5 12 16 14 52 9 26 -3 49 -8 53 -11z"/>
<path d="M616 841 c-20 -22 -12 -58 10 -41 7 7 11 17 8 24 -7 18 25 29 42 15
25 -20 15 -39 -31 -59 -36 -16 -45 -24 -45 -44 0 -30 36 -44 68 -27 13 7 22 7
30 -1 6 -6 18 -8 28 -4 13 5 15 9 6 18 -7 7 -12 35 -12 63 0 28 -5 56 -12 63
-18 18 -73 14 -92 -7z m58 -108 c-22 -16 -38 -12 -42 10 -2 9 8 22 25 31 26
14 28 13 31 -7 2 -12 -4 -27 -14 -34z"/>
<path d="M1055 838 c-35 -30 -37 -79 -5 -113 34 -36 90 -33 111 6 9 17 7 18
-15 8 -50 -23 -95 11 -87 66 6 39 54 53 76 22 12 -17 17 -19 27 -8 11 10 9 15
-6 27 -29 21 -71 17 -101 -8z"/>
<path d="M1550 831 c-29 -28 -31 -41 -15 -92 7 -20 42 -39 73 -39 9 0 28 9 42
20 l25 19 -41 -6 c-34 -4 -45 -1 -63 18 -36 39 -28 49 39 49 52 0 59 2 53 18
-18 48 -72 55 -113 13z m68 7 c19 -19 14 -25 -23 -24 -38 1 -44 10 -17 25 22
13 26 13 40 -1z"/>
<path d="M1697 848 c-15 -8 -15 -11 -3 -23 17 -17 14 -88 -4 -110 -11 -13 -6
-15 34 -15 27 0 46 5 46 11 0 6 -7 9 -15 5 -16 -6 -17 0 -18 67 -1 47 13 63
41 48 16 -8 21 -7 26 4 6 17 7 17 -49 20 -23 2 -49 -1 -58 -7z"/>
<path d="M1836 838 c-59 -51 -25 -138 54 -138 21 0 50 25 50 43 0 8 -4 7 -12
-1 -27 -27 -80 -7 -93 36 -6 21 -4 22 54 22 64 0 69 4 47 32 -23 30 -69 33
-100 6z m65 -18 c-18 -11 -54 -7 -58 7 -5 15 27 22 51 10 13 -7 15 -11 7 -17z"/>
<path d="M1974 846 c-17 -13 -17 -15 -3 -21 21 -8 20 -84 0 -109 -12 -14 -9
-16 29 -16 35 0 41 2 31 14 -7 8 -12 44 -13 80 -1 69 -8 78 -44 52z"/>
<path d="M2073 852 c-24 -4 -31 -18 -12 -24 15 -5 16 -101 1 -106 -27 -9 -9
-22 28 -22 39 0 54 13 27 23 -8 3 -13 22 -12 53 0 44 3 49 28 58 34 12 46 2
51 -44 5 -42 -10 -84 -26 -74 -7 4 -8 3 -4 -4 4 -7 25 -12 48 -12 36 0 39 2
27 16 -7 9 -14 39 -16 66 -1 27 -7 56 -14 64 -13 16 -47 18 -69 4 -8 -5 -19
-6 -25 -1 -5 4 -20 5 -32 3z"/>
<path d="M2646 851 c-4 -5 -1 -11 5 -13 6 -2 12 -29 14 -62 2 -60 12 -76 50
-76 12 0 27 6 33 12 10 10 15 10 20 1 4 -6 19 -9 35 -6 21 4 25 8 15 14 -7 5
-14 28 -15 56 -1 26 -2 56 -2 66 -1 13 -8 17 -32 15 -25 -2 -28 -4 -15 -14 23
-16 22 -100 -1 -112 -19 -10 -44 -5 -54 10 -4 6 -6 34 -5 64 1 50 0 54 -21 54
-12 0 -24 -4 -27 -9z"/>
<path d="M3050 849 c-19 -8 -21 -12 -11 -19 20 -12 22 -91 3 -112 -14 -17 -12
-18 28 -18 37 0 41 2 30 15 -8 9 -12 41 -11 80 1 68 1 70 -39 54z"/>
<path d="M3143 852 c-24 -4 -31 -18 -11 -24 14 -5 12 -101 -2 -106 -25 -9 -6
-22 32 -22 38 0 40 1 26 18 -8 10 -14 36 -14 61 1 39 4 45 29 54 37 12 48 0
51 -54 2 -30 -3 -48 -16 -61 -17 -17 -17 -18 27 -18 25 0 45 5 45 11 0 5 -4 7
-10 4 -12 -7 -11 -7 -14 64 -3 69 -40 100 -86 71 -8 -5 -19 -6 -25 -1 -5 4
-20 5 -32 3z"/>
<path d="M3520 831 c-29 -28 -31 -41 -15 -90 9 -29 50 -45 86 -35 49 14 49 33
1 27 -35 -5 -42 -2 -53 18 -22 39 -17 44 44 49 l59 5 -22 28 c-28 36 -63 35
-100 -2z m80 -10 c0 -3 -16 -7 -35 -7 -40 -2 -46 12 -12 25 20 8 47 -2 47 -18z"/>
<path d="M3673 852 c-24 -4 -31 -18 -11 -24 18 -6 11 -101 -9 -115 -14 -11
-10 -13 30 -13 47 0 47 0 32 23 -18 27 -14 95 6 108 23 14 49 10 56 -8 14 -36
7 -95 -12 -109 -17 -13 -14 -14 30 -14 45 0 47 1 33 18 -10 11 -15 33 -13 59
3 68 -38 103 -85 73 -8 -5 -19 -6 -25 -1 -5 4 -20 5 -32 3z"/>
</g>
</svg>
