<?xml version="1.0" encoding="UTF-8"?>
<svg xmlns="http://www.w3.org/2000/svg" xmlns:xlink="http://www.w3.org/1999/xlink" width="322.153pt" height="134pt" viewBox="0 0 322.153 134" version="1.1">
<g id="surface1">
<path style=" stroke:none;fill-rule:nonzero;fill:rgb(0%,0%,0%);fill-opacity:1;" d="M 145.769531 27.09375 L 145.769531 43 L 142.976562 43 L 142.976562 27.09375 L 137.90625 27.09375 L 137.90625 24.585938 L 150.839844 24.585938 L 150.839844 27.09375 Z M 145.769531 27.09375 "/>
<path style=" stroke:none;fill-rule:nonzero;fill:rgb(0%,0%,0%);fill-opacity:1;" d="M 155.136719 43 L 155.136719 24.585938 L 166.90625 24.585938 L 166.90625 27.09375 L 157.929688 27.09375 L 157.929688 32.472656 L 165.585938 32.472656 L 165.585938 34.957031 L 157.929688 34.957031 L 157.929688 40.492188 L 166.90625 40.492188 L 166.90625 43 Z M 155.136719 43 "/>
<path style=" stroke:none;fill-rule:nonzero;fill:rgb(0%,0%,0%);fill-opacity:1;" d="M 177.277344 43.15625 C 175.363281 43.15625 173.710938 42.457031 172.441406 41.191406 C 170.632812 39.378906 170.65625 37.335938 170.65625 33.792969 C 170.65625 30.25 170.632812 28.207031 172.441406 26.394531 C 173.710938 25.128906 175.363281 24.429688 177.277344 24.429688 C 180.667969 24.429688 183.203125 26.421875 183.847656 30.09375 L 181.003906 30.09375 C 180.5625 28.230469 179.320312 26.9375 177.277344 26.9375 C 176.191406 26.9375 175.210938 27.351562 174.5625 28.050781 C 173.65625 29.03125 173.449219 30.09375 173.449219 33.792969 C 173.449219 37.488281 173.65625 38.550781 174.5625 39.535156 C 175.210938 40.234375 176.191406 40.644531 177.277344 40.644531 C 179.320312 40.644531 180.589844 39.351562 181.027344 37.488281 L 183.847656 37.488281 C 183.230469 41.164062 180.617188 43.15625 177.277344 43.15625 "/>
<path style=" stroke:none;fill-rule:nonzero;fill:rgb(0%,0%,0%);fill-opacity:1;" d="M 198.441406 43 L 198.441406 34.957031 L 190.964844 34.957031 L 190.964844 43 L 188.167969 43 L 188.167969 24.585938 L 190.964844 24.585938 L 190.964844 32.445312 L 198.441406 32.445312 L 198.441406 24.585938 L 201.230469 24.585938 L 201.230469 43 Z M 198.441406 43 "/>
<path style=" stroke:none;fill-rule:nonzero;fill:rgb(0%,0%,0%);fill-opacity:1;" d="M 217.941406 43 L 209.433594 30.039062 L 209.433594 43 L 206.640625 43 L 206.640625 24.585938 L 209.199219 24.585938 L 217.710938 37.515625 L 217.710938 24.585938 L 220.503906 24.585938 L 220.503906 43 Z M 217.941406 43 "/>
<path style=" stroke:none;fill-rule:nonzero;fill:rgb(0%,0%,0%);fill-opacity:1;" d="M 226.429688 24.585938 L 229.222656 24.585938 L 229.222656 43 L 226.429688 43 Z M 226.429688 24.585938 "/>
<path style=" stroke:none;fill-rule:nonzero;fill:rgb(0%,0%,0%);fill-opacity:1;" d="M 239.515625 43.15625 C 236.75 43.15625 234.757812 42.507812 233 40.722656 L 234.863281 38.886719 C 236.207031 40.234375 237.679688 40.644531 239.570312 40.644531 C 241.976562 40.644531 243.371094 39.613281 243.371094 37.828125 C 243.371094 37.023438 243.140625 36.351562 242.648438 35.914062 C 242.183594 35.472656 241.71875 35.292969 240.628906 35.136719 L 238.457031 34.828125 C 236.957031 34.621094 235.765625 34.101562 234.964844 33.351562 C 234.058594 32.5 233.621094 31.335938 233.621094 29.835938 C 233.621094 26.628906 235.949219 24.429688 239.777344 24.429688 C 242.207031 24.429688 243.914062 25.050781 245.492188 26.523438 L 243.707031 28.28125 C 242.570312 27.195312 241.25 26.859375 239.699219 26.859375 C 237.527344 26.859375 236.335938 28.101562 236.335938 29.730469 C 236.335938 30.402344 236.542969 31 237.035156 31.4375 C 237.5 31.851562 238.25 32.164062 239.105469 32.292969 L 241.199219 32.601562 C 242.90625 32.859375 243.863281 33.273438 244.640625 33.972656 C 245.648438 34.851562 246.136719 36.171875 246.136719 37.75 C 246.136719 41.136719 243.371094 43.15625 239.515625 43.15625 "/>
<path style=" stroke:none;fill-rule:nonzero;fill:rgb(0%,0%,0%);fill-opacity:1;" d="M 256.433594 43.15625 C 254.519531 43.15625 252.867188 42.457031 251.597656 41.191406 C 249.789062 39.378906 249.8125 37.335938 249.8125 33.792969 C 249.8125 30.25 249.789062 28.207031 251.597656 26.394531 C 252.867188 25.128906 254.519531 24.429688 256.433594 24.429688 C 259.824219 24.429688 262.359375 26.421875 263.003906 30.09375 L 260.160156 30.09375 C 259.71875 28.230469 258.476562 26.9375 256.433594 26.9375 C 255.347656 26.9375 254.367188 27.351562 253.71875 28.050781 C 252.8125 29.03125 252.609375 30.09375 252.609375 33.792969 C 252.609375 37.488281 252.8125 38.550781 253.71875 39.535156 C 254.367188 40.234375 255.347656 40.644531 256.433594 40.644531 C 258.476562 40.644531 259.746094 39.351562 260.183594 37.488281 L 263.003906 37.488281 C 262.386719 41.164062 259.773438 43.15625 256.433594 43.15625 "/>
<path style=" stroke:none;fill-rule:nonzero;fill:rgb(0%,0%,0%);fill-opacity:1;" d="M 277.59375 43 L 277.59375 34.957031 L 270.117188 34.957031 L 270.117188 43 L 267.324219 43 L 267.324219 24.585938 L 270.117188 24.585938 L 270.117188 32.445312 L 277.59375 32.445312 L 277.59375 24.585938 L 280.386719 24.585938 L 280.386719 43 Z M 277.59375 43 "/>
<path style=" stroke:none;fill-rule:nonzero;fill:rgb(0%,0%,0%);fill-opacity:1;" d="M 285.792969 43 L 285.792969 24.585938 L 297.5625 24.585938 L 297.5625 27.09375 L 288.589844 27.09375 L 288.589844 32.472656 L 296.246094 32.472656 L 296.246094 34.957031 L 288.589844 34.957031 L 288.589844 40.492188 L 297.5625 40.492188 L 297.5625 43 Z M 285.792969 43 "/>
<path style=" stroke:none;fill-rule:nonzero;fill:rgb(0%,0%,0%);fill-opacity:1;" d="M 143.363281 63.1875 L 143.363281 68.800781 L 151.019531 68.800781 L 151.019531 71.3125 L 143.363281 71.3125 L 143.363281 79.097656 L 140.570312 79.097656 L 140.570312 60.679688 L 152.339844 60.679688 L 152.339844 63.1875 Z M 143.363281 63.1875 "/>
<path style=" stroke:none;fill-rule:nonzero;fill:rgb(0%,0%,0%);fill-opacity:1;" d="M 159.894531 64.84375 L 157.023438 73.015625 L 162.6875 73.015625 Z M 164.730469 79.09375 L 163.460938 75.398438 L 156.195312 75.398438 L 154.925781 79.09375 L 151.953125 79.09375 L 158.703125 60.679688 L 160.953125 60.679688 L 167.707031 79.09375 Z M 164.730469 79.09375 "/>
<path style=" stroke:none;fill-rule:nonzero;fill:rgb(0%,0%,0%);fill-opacity:1;" d="M 176.007812 79.25 C 174.09375 79.25 172.441406 78.550781 171.171875 77.285156 C 169.363281 75.476562 169.386719 73.429688 169.386719 69.886719 C 169.386719 66.34375 169.363281 64.300781 171.171875 62.492188 C 172.441406 61.222656 174.09375 60.523438 176.007812 60.523438 C 179.398438 60.523438 181.933594 62.515625 182.578125 66.1875 L 179.734375 66.1875 C 179.292969 64.328125 178.050781 63.035156 176.007812 63.035156 C 174.921875 63.035156 173.941406 63.449219 173.292969 64.144531 C 172.386719 65.128906 172.183594 66.1875 172.183594 69.886719 C 172.183594 73.585938 172.386719 74.648438 173.292969 75.628906 C 173.941406 76.328125 174.921875 76.742188 176.007812 76.742188 C 178.050781 76.742188 179.320312 75.449219 179.757812 73.585938 L 182.578125 73.585938 C 181.960938 77.257812 179.347656 79.25 176.007812 79.25 "/>
<path style=" stroke:none;fill-rule:nonzero;fill:rgb(0%,0%,0%);fill-opacity:1;" d="M 196.574219 79.09375 L 196.574219 71.050781 L 189.097656 71.050781 L 189.097656 79.09375 L 186.304688 79.09375 L 186.304688 60.679688 L 189.097656 60.679688 L 189.097656 68.542969 L 196.574219 68.542969 L 196.574219 60.679688 L 199.367188 60.679688 L 199.367188 79.09375 Z M 196.574219 79.09375 "/>
<path style=" stroke:none;fill-rule:nonzero;fill:rgb(0%,0%,0%);fill-opacity:1;" d="M 209.066406 79.25 C 206.300781 79.25 204.308594 78.605469 202.550781 76.820312 L 204.414062 74.984375 C 205.757812 76.328125 207.230469 76.742188 209.121094 76.742188 C 211.527344 76.742188 212.921875 75.707031 212.921875 73.921875 C 212.921875 73.121094 212.691406 72.449219 212.199219 72.007812 C 211.734375 71.570312 211.269531 71.386719 210.179688 71.234375 L 208.007812 70.921875 C 206.507812 70.714844 205.316406 70.199219 204.515625 69.449219 C 203.609375 68.59375 203.171875 67.429688 203.171875 65.929688 C 203.171875 62.722656 205.5 60.523438 209.328125 60.523438 C 211.757812 60.523438 213.464844 61.144531 215.042969 62.621094 L 213.257812 64.378906 C 212.121094 63.292969 210.800781 62.957031 209.25 62.957031 C 207.078125 62.957031 205.886719 64.199219 205.886719 65.828125 C 205.886719 66.5 206.09375 67.09375 206.585938 67.535156 C 207.050781 67.949219 207.800781 68.257812 208.65625 68.386719 L 210.75 68.699219 C 212.457031 68.957031 213.414062 69.371094 214.191406 70.070312 C 215.199219 70.949219 215.6875 72.269531 215.6875 73.84375 C 215.6875 77.234375 212.921875 79.25 209.066406 79.25 "/>
<path style=" stroke:none;fill-rule:nonzero;fill:rgb(0%,0%,0%);fill-opacity:1;" d="M 225.390625 79.25 C 223.476562 79.25 221.820312 78.550781 220.554688 77.285156 C 218.742188 75.476562 218.769531 73.429688 218.769531 69.886719 C 218.769531 66.34375 218.742188 64.300781 220.554688 62.492188 C 221.820312 61.222656 223.476562 60.523438 225.390625 60.523438 C 228.777344 60.523438 231.316406 62.515625 231.960938 66.1875 L 229.113281 66.1875 C 228.675781 64.328125 227.433594 63.035156 225.390625 63.035156 C 224.304688 63.035156 223.320312 63.449219 222.675781 64.144531 C 221.769531 65.128906 221.5625 66.1875 221.5625 69.886719 C 221.5625 73.585938 221.769531 74.648438 222.675781 75.628906 C 223.320312 76.328125 224.304688 76.742188 225.390625 76.742188 C 227.433594 76.742188 228.703125 75.449219 229.140625 73.585938 L 231.960938 73.585938 C 231.339844 77.257812 228.726562 79.25 225.390625 79.25 "/>
<path style=" stroke:none;fill-rule:nonzero;fill:rgb(0%,0%,0%);fill-opacity:1;" d="M 245.957031 79.09375 L 245.957031 71.050781 L 238.480469 71.050781 L 238.480469 79.09375 L 235.6875 79.09375 L 235.6875 60.679688 L 238.480469 60.679688 L 238.480469 68.542969 L 245.957031 68.542969 L 245.957031 60.679688 L 248.746094 60.679688 L 248.746094 79.09375 Z M 245.957031 79.09375 "/>
<path style=" stroke:none;fill-rule:nonzero;fill:rgb(0%,0%,0%);fill-opacity:1;" d="M 259.871094 79.25 C 256.121094 79.25 253.277344 76.691406 253.277344 72.886719 L 253.277344 60.679688 L 256.070312 60.679688 L 256.070312 72.757812 C 256.070312 75.214844 257.570312 76.742188 259.871094 76.742188 C 262.175781 76.742188 263.699219 75.214844 263.699219 72.757812 L 263.699219 60.679688 L 266.492188 60.679688 L 266.492188 72.886719 C 266.492188 76.691406 263.625 79.25 259.871094 79.25 "/>
<path style=" stroke:none;fill-rule:nonzero;fill:rgb(0%,0%,0%);fill-opacity:1;" d="M 271.023438 79.09375 L 271.023438 60.679688 L 273.816406 60.679688 L 273.816406 76.585938 L 282.6875 76.585938 L 282.6875 79.09375 Z M 271.023438 79.09375 "/>
<path style=" stroke:none;fill-rule:nonzero;fill:rgb(0%,0%,0%);fill-opacity:1;" d="M 285.871094 79.09375 L 285.871094 60.679688 L 297.640625 60.679688 L 297.640625 63.1875 L 288.664062 63.1875 L 288.664062 68.570312 L 296.320312 68.570312 L 296.320312 71.050781 L 288.664062 71.050781 L 288.664062 76.585938 L 297.640625 76.585938 L 297.640625 79.09375 Z M 285.871094 79.09375 "/>
<path style=" stroke:none;fill-rule:nonzero;fill:rgb(0%,0%,0%);fill-opacity:1;" d="M 145.03125 104.710938 L 141.164062 104.710938 L 141.164062 110.089844 L 145.03125 110.089844 C 146.816406 110.089844 147.996094 109.09375 147.996094 107.398438 C 147.996094 105.703125 146.816406 104.710938 145.03125 104.710938 M 144.886719 98.742188 L 141.164062 98.742188 L 141.164062 103.824219 L 144.886719 103.824219 C 146.46875 103.824219 147.796875 103.089844 147.796875 101.285156 C 147.796875 99.476562 146.46875 98.742188 144.886719 98.742188 M 145.140625 110.972656 L 140.167969 110.972656 L 140.167969 97.855469 L 144.996094 97.855469 C 147.167969 97.855469 148.789062 99.128906 148.789062 101.285156 C 148.789062 102.664062 148.015625 103.804688 146.746094 104.230469 C 148.164062 104.726562 148.992188 105.871094 148.992188 107.398438 C 148.992188 109.738281 147.445312 110.972656 145.140625 110.972656 "/>
<path style=" stroke:none;fill-rule:nonzero;fill:rgb(0%,0%,0%);fill-opacity:1;" d="M 152.527344 97.855469 L 160.484375 97.855469 L 160.484375 98.738281 L 153.519531 98.738281 L 153.519531 103.917969 L 159.449219 103.917969 L 159.449219 104.800781 L 153.519531 104.800781 L 153.519531 110.089844 L 160.484375 110.089844 L 160.484375 110.972656 L 152.527344 110.972656 Z M 152.527344 97.855469 "/>
<path style=" stroke:none;fill-rule:nonzero;fill:rgb(0%,0%,0%);fill-opacity:1;" d="M 168.402344 98.742188 L 164.53125 98.742188 L 164.53125 104.046875 L 168.402344 104.046875 C 170.09375 104.046875 171.292969 103.21875 171.292969 101.394531 C 171.292969 99.570312 170.09375 98.742188 168.402344 98.742188 M 168.144531 104.929688 L 164.53125 104.929688 L 164.53125 110.972656 L 163.539062 110.972656 L 163.539062 97.855469 L 168.53125 97.855469 C 170.667969 97.855469 172.289062 99.089844 172.289062 101.375 C 172.289062 103.347656 171.109375 104.597656 169.265625 104.914062 L 172.433594 110.972656 L 171.273438 110.972656 Z M 168.144531 104.929688 "/>
<path style=" stroke:none;fill-rule:nonzero;fill:rgb(0%,0%,0%);fill-opacity:1;" d="M 176.632812 99.570312 L 176.632812 110.972656 L 175.636719 110.972656 L 175.636719 97.855469 L 176.632812 97.855469 L 184.203125 109.222656 L 184.203125 97.855469 L 185.195312 97.855469 L 185.195312 110.972656 L 184.203125 110.972656 Z M 176.632812 99.570312 "/>
<path style=" stroke:none;fill-rule:nonzero;fill:rgb(0%,50.999451%,70.599365%);fill-opacity:1;" d="M 104.097656 37.316406 L 110.035156 37.316406 L 104.097656 43.265625 Z M 97.46875 70.707031 L 103.390625 70.707031 L 97.472656 76.726562 Z M 70.933594 104.140625 L 76.855469 104.140625 L 70.933594 110.03125 Z M 57.992188 110.324219 L 64.164062 104.140625 L 70.515625 104.140625 L 70.515625 110.324219 Z M 63.871094 77.441406 L 63.871094 103.824219 L 57.628906 110.078125 L 57.628906 77.441406 Z M 30.695312 30.671875 L 30.695312 37.023438 L 24.488281 43.261719 L 24.488281 30.671875 Z M 30.695312 30.253906 L 24.75 30.253906 L 30.695312 24.3125 Z M 57.410156 30.253906 L 31.109375 30.253906 L 31.109375 24.019531 L 63.601562 24.027344 Z M 77.519531 30.671875 L 103.679688 30.671875 L 103.679688 36.898438 L 77.519531 36.898438 Z M 97.136719 63.652344 L 77.519531 63.652344 L 77.519531 57.394531 L 103.398438 57.394531 Z M 77.519531 64.070312 L 97.042969 64.070312 L 97.050781 70.292969 L 77.519531 70.292969 Z M 77.105469 77.023438 L 71.21875 77.023438 L 77.105469 71.09375 Z M 64.285156 70.691406 L 70.515625 70.699219 L 70.515625 77.023438 L 64.285156 77.023438 Z M 63.871094 71.003906 L 63.871094 77.023438 L 57.917969 77.023438 Z M 57.628906 43.871094 L 63.871094 37.613281 L 63.871094 70.410156 L 57.628906 76.6875 Z M 31 37.316406 L 57.210938 37.316406 L 57.210938 43.65625 L 24.738281 43.65625 Z M 57.210938 30.671875 L 57.210938 36.898438 L 31.109375 36.898438 L 31.109375 30.671875 Z M 63.871094 30.671875 L 63.871094 36.898438 L 57.628906 36.898438 L 57.628906 30.671875 Z M 63.871094 30.253906 L 57.996094 30.253906 L 63.871094 24.351562 Z M 71.246094 30.253906 L 77.105469 24.351562 L 77.105469 30.253906 Z M 77.105469 37.023438 L 70.933594 43.203125 L 70.933594 30.671875 L 77.105469 30.671875 Z M 77.105469 37.617188 L 77.105469 43.625 L 71.132812 43.625 Z M 77.105469 57.097656 L 70.933594 63.292969 L 70.933594 44.078125 L 77.105469 44.078125 Z M 71.171875 63.652344 L 77.105469 57.691406 L 77.105469 63.652344 Z M 64.285156 30.671875 L 70.515625 30.671875 L 70.515625 70.292969 L 64.285156 70.292969 Z M 57.628906 37.316406 L 63.578125 37.316406 L 57.628906 43.277344 Z M 76.886719 70.707031 L 70.933594 76.6875 L 70.933594 70.699219 Z M 77.105469 70.289062 L 70.933594 70.292969 L 70.933594 64.070312 L 77.105469 64.070312 Z M 110.03125 24.042969 L 103.824219 30.253906 L 77.519531 30.253906 L 77.519531 24.03125 Z M 76.832031 24.03125 L 70.65625 30.253906 L 64.285156 30.253906 L 64.285156 24.027344 Z M 64.285156 77.441406 L 70.515625 77.441406 L 70.515625 103.722656 L 64.285156 103.722656 Z M 70.933594 103.722656 L 70.933594 77.441406 L 77.105469 77.441406 L 77.105469 103.722656 Z M 97.46875 70.292969 L 97.460938 63.9375 L 103.691406 57.691406 L 103.679688 70.292969 Z M 77.519531 37.316406 L 103.679688 37.316406 L 103.679688 43.625 L 77.519531 43.625 Z M 104.097656 36.898438 L 104.097656 30.570312 L 110.328125 24.335938 L 110.328125 36.898438 Z M 77.519531 77.023438 L 77.519531 70.710938 L 97.050781 70.707031 L 97.058594 77.023438 Z M 110.535156 22.429688 L 30.902344 22.40625 C 30.53125 22.40625 30.171875 22.554688 29.90625 22.816406 L 23.285156 29.441406 C 23.023438 29.703125 22.875 30.0625 22.875 30.433594 L 22.875 43.78125 C 22.875 44.558594 23.503906 45.238281 24.28125 45.238281 L 56.050781 45.238281 L 56.050781 110.53125 C 56.050781 111.308594 56.679688 111.9375 57.453125 111.9375 L 70.726562 111.9375 C 71.097656 111.9375 71.453125 111.789062 71.714844 111.527344 L 78.351562 104.929688 C 78.617188 104.664062 78.765625 104.308594 78.765625 103.933594 L 78.765625 78.636719 L 97.265625 78.636719 C 97.640625 78.636719 98 78.488281 98.265625 78.222656 L 104.886719 71.523438 C 105.148438 71.261719 105.292969 70.90625 105.292969 70.535156 L 105.304688 57.292969 C 105.308594 57.257812 105.308594 57.222656 105.308594 57.183594 C 105.308594 56.410156 104.683594 55.78125 103.90625 55.78125 L 78.753906 55.78125 L 78.753906 45.242188 L 103.886719 45.242188 C 104.261719 45.242188 104.625 45.054688 104.886719 44.789062 L 111.535156 38.097656 C 111.792969 37.832031 111.941406 37.476562 111.941406 37.109375 L 111.941406 23.832031 C 111.941406 23.058594 111.3125 22.429688 110.535156 22.429688 "/>
</g>
</svg>
